<svg viewBox="0 0 117 19" xmlns="http://www.w3.org/2000/svg"><g fill="#FFF" fill-rule="evenodd"><path d="M35.31 13.181l-1.182 2.621H32L37.202 4.28h2.128l5.201 11.522h-2.128l-1.182-2.62h-5.91zm5.1-1.796l-2.144-4.748-2.145 4.748h4.29zM53.803 8.12c.856.813 1.284 1.895 1.284 3.247 0 1.352-.425 2.45-1.275 3.297-.85.846-1.841 1.27-2.973 1.27-1.131 0-2.147-.484-3.048-1.451V19h-1.892V7.033h1.892v1.533c.743-1.11 1.717-1.665 2.921-1.665 1.205 0 2.235.407 3.091 1.22zm-5.27 5.365c.519.533 1.15.8 1.892.8.743 0 1.39-.264 1.943-.791.551-.528.827-1.212.827-2.053 0-.84-.27-1.538-.81-2.093-.541-.555-1.188-.833-1.943-.833-.754 0-1.39.278-1.908.833-.518.555-.777 1.25-.777 2.085s.259 1.52.777 2.052zm16.62-5.365c.855.813 1.283 1.895 1.283 3.247 0 1.352-.425 2.45-1.275 3.297-.85.846-1.841 1.27-2.973 1.27-1.131 0-2.147-.484-3.048-1.451V19h-1.892V7.033h1.892v1.533c.743-1.11 1.717-1.665 2.922-1.665 1.204 0 2.235.407 3.09 1.22zm-5.27 5.365c.518.533 1.148.8 1.891.8.744 0 1.391-.264 1.943-.791.551-.528.827-1.212.827-2.053 0-.84-.27-1.538-.81-2.093-.54-.555-1.188-.833-1.943-.833-.754 0-1.39.278-1.908.833-.518.555-.777 1.25-.777 2.085s.26 1.52.777 2.052zM75.64 6.143c-.372.23-.557.58-.557 1.047 0 .467.185.824.557 1.071.372.247 1.162.514 2.373.8 1.21.285 2.122.686 2.736 1.203.613.516.92 1.277.92 2.283 0 1.005-.388 1.821-1.165 2.448-.777.626-1.796.94-3.057.94-1.846 0-3.485-.622-4.915-1.864l1.25-1.467c1.194 1.011 2.432 1.517 3.716 1.517.641 0 1.15-.135 1.528-.404.377-.27.566-.626.566-1.071 0-.445-.177-.792-.532-1.039-.355-.247-.966-.472-1.833-.676-.866-.203-1.525-.39-1.975-.56-.45-.17-.85-.393-1.2-.668-.698-.516-1.047-1.307-1.047-2.373 0-1.066.397-1.888 1.191-2.465S75.972 4 77.143 4c.754 0 1.503.12 2.246.363a5.917 5.917 0 0 1 1.926 1.022L80.25 6.852c-.35-.308-.822-.56-1.42-.759a5.586 5.586 0 0 0-1.764-.296c-.58 0-1.055.115-1.427.346zm10.555 2.373v4.451c0 .418.113.75.338.997.225.248.54.371.946.371.405 0 .794-.192 1.165-.577l.777 1.302c-.664.583-1.399.874-2.204.874-.805 0-1.492-.272-2.06-.816-.569-.544-.853-1.277-.853-2.2V8.516h-1.132V7.033h1.132V4.28h1.891v2.753h2.365v1.483h-2.365zm8.867 5.77c.822 0 1.5-.267 2.035-.8.535-.533.802-1.222.802-2.068 0-.847-.267-1.536-.802-2.07-.535-.532-1.213-.799-2.035-.799-.822 0-1.5.267-2.035.8-.535.533-.802 1.222-.802 2.069 0 .846.267 1.535.802 2.068.535.533 1.213.8 2.035.8zm0 1.648c-1.351 0-2.477-.437-3.378-1.31-.9-.874-1.351-1.943-1.351-3.206 0-1.264.45-2.333 1.351-3.206.9-.874 2.027-1.31 3.378-1.31 1.35 0 2.477.436 3.377 1.31.901.873 1.352 1.942 1.352 3.206 0 1.263-.45 2.332-1.352 3.206-.9.873-2.026 1.31-3.377 1.31zm11.585-7.17c-.934 0-1.638.296-2.11.89-.474.593-.71 1.39-.71 2.39v3.758h-1.892V7.033h1.892v1.764c.304-.55.718-1 1.241-1.352a3.04 3.04 0 0 1 1.664-.544l.017 1.863h-.102zM117 12.225h-7.043c.046.638.344 1.151.896 1.541.551.39 1.182.586 1.891.586 1.126 0 1.982-.347 2.567-1.039l1.081 1.154c-.968.978-2.23 1.467-3.783 1.467-1.261 0-2.333-.41-3.217-1.228-.884-.819-1.326-1.918-1.326-3.297 0-1.379.45-2.475 1.351-3.288.9-.813 1.962-1.22 3.184-1.22 1.221 0 2.26.36 3.115 1.08.856.72 1.284 1.711 1.284 2.975v1.27zm-7.043-1.45h5.151c0-.737-.236-1.302-.709-1.698-.473-.396-1.055-.593-1.748-.593a3.04 3.04 0 0 0-1.866.618c-.552.412-.828.97-.828 1.673z"/><path d="M15.488 6.404c-.11.072-.218.142-.324.216-.503.35-.93.775-1.25 1.303-.256.427-.42.886-.492 1.378-.1.675-.064 1.342.134 1.996.213.699.606 1.282 1.14 1.777.377.352.799.636 1.273.84l.031.015-.06.173a10.684 10.684 0 0 1-1.616 2.987c-.265.348-.53.695-.842 1.002-.273.27-.57.508-.922.67a2.244 2.244 0 0 1-1.33.187 5.648 5.648 0 0 1-1.216-.366 4.746 4.746 0 0 0-1.238-.326 3.81 3.81 0 0 0-1.3.09c-.354.08-.69.214-1.027.343-.332.128-.67.232-1.024.287a1.981 1.981 0 0 1-1.248-.212c-.432-.225-.788-.546-1.11-.905a11.973 11.973 0 0 1-2.71-4.998 10.836 10.836 0 0 1-.297-1.563A8.926 8.926 0 0 1 .02 9.69c.058-.856.25-1.676.646-2.442.363-.7.844-1.302 1.484-1.77a4.678 4.678 0 0 1 2.086-.875c.27-.04.54-.067.813-.05.305.018.603.077.893.167.332.102.66.218.99.333.326.113.653.228.99.31.2.05.387.013.572-.05.487-.164.973-.333 1.459-.497.465-.155.94-.272 1.43-.309.265-.02.53-.002.791.03a5.8 5.8 0 0 1 1.154.257c.881.302 1.6.822 2.143 1.583l.017.026zM11.982 0c.005.076.013.148.015.22.037.937-.255 1.771-.803 2.522-.343.47-.748.876-1.231 1.201-.352.236-.732.41-1.147.498a2.895 2.895 0 0 1-.748.053c-.015 0-.029-.004-.044-.006a2.671 2.671 0 0 1-.017-.549c.068-.953.465-1.765 1.08-2.478.474-.55 1.067-.927 1.736-1.193.35-.14.711-.235 1.088-.264l.07-.004z" fill-rule="nonzero"/></g></svg>