<svg viewBox="0 0 213 64" version="1.1" xmlns="http://www.w3.org/2000/svg" xmlns:xlink="http://www.w3.org/1999/xlink"><defs><rect id="path-1" x="0" y="0" width="213" height="64" rx="32"/><path d="M53.5335007,45.5305535 C52.0476663,47.7251474 50.5107072,49.9062422 48.0840709,49.9519592 C45.6958674,49.9976762 44.930248,48.5232143 42.2050862,48.5232143 C39.4770643,48.5232143 38.6236748,49.9062422 36.3688068,49.9976762 C34.0261329,50.0862303 32.2447942,47.6274139 30.7467149,45.4427193 C27.6861857,40.9757766 25.3502689,32.8124199 28.491829,27.3033106 C30.0475219,24.5673667 32.8351416,22.8363139 35.8559508,22.7906149 C38.1565809,22.7478498 40.3299175,24.3572127 41.7351321,24.3572127 C43.1424918,24.3572127 45.7804198,22.4249873 48.5536675,22.7083964 C49.7145202,22.7568312 52.9725589,23.180847 55.0649182,26.2732212 C54.8995673,26.3829958 51.1760435,28.5710022 51.221448,33.1293788 C51.2670312,38.5745564 55.9456576,40.384516 56,40.4091743 C55.9576344,40.5371458 55.2520776,42.9930824 53.5335007,45.5305535 Z M43.3448456,16.7267645 C44.62922,15.2066397 46.799339,14.0759729 48.5903128,14 C48.8191227,16.1115295 47.9780675,18.2259747 46.73588,19.7496093 C45.4911898,21.2705081 43.4537091,22.4552613 41.4541249,22.2970698 C41.1824132,20.2312393 42.1902493,18.0767467 43.3448456,16.7267645 Z M86.9147705,48 L85.326001,43.3059082 L78.7061279,43.3059082 L77.1173584,48 L74.3129395,48 L80.5837646,30.6318604 L83.4965088,30.6318604 L89.767334,48 L86.9147705,48 Z M81.9799561,33.5205322 L79.3921875,41.1394043 L84.6399414,41.1394043 L82.0521729,33.5205322 L81.9799561,33.5205322 Z M98.1565186,34.7963623 C101.490527,34.7963623 103.681104,37.4082031 103.681104,41.4643799 C103.681104,45.5085205 101.502563,48.1323975 98.2166992,48.1323975 C96.3390625,48.1323975 94.8586182,47.3019043 94.0762695,45.8575684 L94.028125,45.8575684 L94.028125,52.2728271 L91.4162842,52.2728271 L91.4162842,34.9287598 L93.9318359,34.9287598 L93.9318359,37.0952637 L93.9920166,37.0952637 C94.7262207,35.6870361 96.3390625,34.7963623 98.1565186,34.7963623 Z M97.4945313,45.917749 C99.6128906,45.917749 101.009082,44.1725098 101.009082,41.4643799 C101.009082,38.7682861 99.6128906,37.0110107 97.4945313,37.0110107 C95.4243164,37.0110107 94.0160889,38.8043945 94.0040527,41.4643799 C94.0160889,44.1364014 95.4122803,45.917749 97.4945313,45.917749 Z M112.503589,34.7963623 C115.837598,34.7963623 118.028174,37.4082031 118.028174,41.4643799 C118.028174,45.5085205 115.849634,48.1323975 112.56377,48.1323975 C110.686133,48.1323975 109.205688,47.3019043 108.42334,45.8575684 L108.375195,45.8575684 L108.375195,52.2728271 L105.763354,52.2728271 L105.763354,34.9287598 L108.278906,34.9287598 L108.278906,37.0952637 L108.339087,37.0952637 C109.073291,35.6870361 110.686133,34.7963623 112.503589,34.7963623 Z M111.841602,45.917749 C113.959961,45.917749 115.356152,44.1725098 115.356152,41.4643799 C115.356152,38.7682861 113.959961,37.0110107 111.841602,37.0110107 C109.771387,37.0110107 108.363159,38.8043945 108.351123,41.4643799 C108.363159,44.1364014 109.759351,45.917749 111.841602,45.917749 Z M125.285962,43.1614746 L127.945947,43.1614746 C128.138525,44.8826416 129.811548,46.0140381 132.098413,46.0140381 C134.288989,46.0140381 135.865723,44.8826416 135.865723,43.3299805 C135.865723,41.9819336 134.914868,41.1755127 132.664111,40.6218506 L130.413354,40.0802246 C127.223779,39.3099121 125.743335,37.8174316 125.743335,35.3981689 C125.743335,32.4011719 128.355176,30.3429932 132.062305,30.3429932 C135.733325,30.3429932 138.248877,32.4011719 138.33313,35.3981689 L135.709253,35.3981689 C135.552783,33.6649658 134.120483,32.6178223 132.026196,32.6178223 C129.931909,32.6178223 128.499609,33.677002 128.499609,35.217627 C128.499609,36.4453125 129.414355,37.1674805 131.653076,37.7211426 L133.566821,38.1905518 C137.129517,39.0330811 138.609961,40.4653809 138.609961,43.0050049 C138.609961,46.2547607 136.022192,48.2888672 131.905835,48.2888672 C128.054272,48.2888672 125.454468,46.3029053 125.285962,43.1614746 Z M141.546777,31.9919434 L144.146582,31.9919434 L144.146582,34.9287598 L146.650098,34.9287598 L146.650098,36.9869385 L144.146582,36.9869385 L144.146582,44.2928711 C144.146582,45.4242676 144.6521,45.9538574 145.747388,45.9538574 C146.024219,45.9538574 146.469556,45.917749 146.638062,45.8936768 L146.638062,47.9518555 C146.349194,48.0240723 145.735352,48.0842529 145.169653,48.0842529 C142.557813,48.0842529 141.546777,47.0852539 141.546777,44.557666 L141.546777,36.9869385 L139.741357,36.9869385 L139.741357,34.9287598 L141.546777,34.9287598 L141.546777,31.9919434 Z M154.449512,48.1564697 C150.670166,48.1564697 148.262939,45.5807373 148.262939,41.4643799 C148.262939,37.3600586 150.682202,34.7602539 154.449512,34.7602539 C158.216821,34.7602539 160.624048,37.3480225 160.624048,41.4643799 C160.624048,45.5807373 158.228857,48.1564697 154.449512,48.1564697 Z M154.449512,45.9899658 C156.66416,45.9899658 157.976099,44.3169434 157.976099,41.4643799 C157.976099,38.6118164 156.66416,36.9267578 154.449512,36.9267578 C152.234863,36.9267578 150.910889,38.6238525 150.910889,41.4643799 C150.910889,44.3169434 152.234863,45.9899658 154.449512,45.9899658 Z M162.718335,48 L162.718335,34.9287598 L165.209814,34.9287598 L165.209814,37.1313721 L165.257959,37.1313721 C165.667188,35.675 166.870801,34.7963623 168.411426,34.7963623 C168.700293,34.7963623 169.073413,34.8324707 169.278027,34.8926514 L169.278027,37.3359863 C169.061377,37.2517334 168.519751,37.1674805 168.134595,37.1674805 C166.413428,37.1674805 165.330176,38.3590576 165.330176,40.2005859 L165.330176,48 L162.718335,48 Z M176.439526,36.8906494 C174.56189,36.8906494 173.201807,38.2627686 173.057373,40.2728027 L179.689282,40.2728027 C179.629102,38.2386963 178.341235,36.8906494 176.439526,36.8906494 Z M179.677246,44.1725098 L182.168726,44.1725098 C181.795605,46.5195557 179.496704,48.1564697 176.559888,48.1564697 C172.768506,48.1564697 170.409424,45.6048096 170.409424,41.5125244 C170.409424,37.4202393 172.792578,34.7602539 176.451562,34.7602539 C180.03833,34.7602539 182.301123,37.2517334 182.301123,41.2116211 L182.301123,42.1263672 L173.045337,42.1263672 L173.045337,42.2828369 C173.045337,44.5456299 174.465601,46.0381104 176.608032,46.0381104 C178.124585,46.0381104 179.316162,45.3159424 179.677246,44.1725098 Z M74.742,15.08 L77.538,15.08 C78.4020043,15.08 79.0479979,15.2599982 79.476,15.62 C79.9040021,15.9800018 80.118,16.4999966 80.118,17.18 C80.118,17.6440023 79.9920013,18.0359984 79.74,18.356 C79.4879987,18.6760016 79.1300023,18.8839995 78.666,18.98 L78.666,18.992 C79.1780026,19.0720004 79.5839985,19.2799983 79.884,19.616 C80.1840015,19.9520017 80.334,20.3679975 80.334,20.864 C80.334,21.5440034 80.0920024,22.0699981 79.608,22.442 C79.1239976,22.8140019 78.4340045,23 77.538,23 L74.742,23 L74.742,15.08 Z M77.55,18.728 C78.8380064,18.728 79.482,18.2120052 79.482,17.18 C79.482,16.1479948 78.8380064,15.632 77.55,15.632 L75.342,15.632 L75.342,18.728 L77.55,18.728 Z M77.658,22.448 C78.3300034,22.448 78.8379983,22.3120014 79.182,22.04 C79.5260017,21.7679986 79.698,21.3760026 79.698,20.864 C79.698,20.3439974 79.5260017,19.9500013 79.182,19.682 C78.8379983,19.4139987 78.3300034,19.28 77.658,19.28 L75.342,19.28 L75.342,22.448 L77.658,22.448 Z M86.97,22.604 C87.170001,22.604 87.3259994,22.5760003 87.438,22.52 L87.402,23 C87.2579993,23.0800004 87.0620012,23.12 86.814,23.12 C86.5339986,23.12 86.3060009,23.0440008 86.13,22.892 C85.9539991,22.7399992 85.8540001,22.4760019 85.83,22.1 C85.6459991,22.4200016 85.350002,22.6699991 84.942,22.85 C84.533998,23.0300009 84.1060022,23.12 83.658,23.12 C83.065997,23.12 82.5920018,22.9880013 82.236,22.724 C81.8799982,22.4599987 81.702,22.0840024 81.702,21.596 C81.702,20.6679954 82.4619924,20.0680014 83.982,19.796 L85.818,19.472 L85.818,18.944 C85.818,18.4639976 85.6760014,18.0880014 85.392,17.816 C85.1079986,17.5439986 84.7060026,17.408 84.186,17.408 C83.2339952,17.408 82.5940016,17.8319958 82.266,18.68 L81.81,18.344 C81.9860009,17.8719976 82.277998,17.5100013 82.686,17.258 C83.094002,17.0059987 83.593997,16.88 84.186,16.88 C84.8820035,16.88 85.427998,17.0499983 85.824,17.39 C86.220002,17.7300017 86.418,18.2239968 86.418,18.872 L86.418,21.968 C86.418,22.3920021 86.6019982,22.604 86.97,22.604 Z M83.718,22.592 C84.0540017,22.592 84.3819984,22.5340006 84.702,22.418 C85.0220016,22.3019994 85.2879989,22.1300011 85.5,21.902 C85.7120011,21.6739989 85.818,21.4000016 85.818,21.08 L85.818,19.964 L84.174,20.264 C83.5259968,20.3840006 83.0540015,20.5519989 82.758,20.768 C82.4619985,20.9840011 82.314,21.2599983 82.314,21.596 C82.314,21.9160016 82.4379988,22.1619991 82.686,22.334 C82.9340012,22.5060009 83.2779978,22.592 83.718,22.592 Z M88.962,15.836 C88.8099992,15.836 88.6880005,15.7900005 88.596,15.698 C88.5039995,15.6059995 88.458,15.4840008 88.458,15.332 C88.458,15.1799992 88.5039995,15.0580005 88.596,14.966 C88.6880005,14.8739995 88.8099992,14.828 88.962,14.828 C89.1140008,14.828 89.2359995,14.8739995 89.328,14.966 C89.4200005,15.0580005 89.466,15.1799992 89.466,15.332 C89.466,15.4840008 89.4200005,15.6059995 89.328,15.698 C89.2359995,15.7900005 89.1140008,15.836 88.962,15.836 Z M89.262,23 L88.662,23 L88.662,17 L89.262,17 L89.262,23 Z M95.37,23 L93.342,20.372 L91.35,23 L90.63,23 L93.006,19.928 L90.75,17 L91.518,17 L93.402,19.448 L95.226,17 L95.946,17 L93.738,19.892 L96.126,23 L95.37,23 Z M102.186,22.604 C102.386001,22.604 102.541999,22.5760003 102.654,22.52 L102.618,23 C102.473999,23.0800004 102.278001,23.12 102.03,23.12 C101.749999,23.12 101.522001,23.0440008 101.346,22.892 C101.169999,22.7399992 101.07,22.4760019 101.046,22.1 C100.861999,22.4200016 100.566002,22.6699991 100.158,22.85 C99.749998,23.0300009 99.3220022,23.12 98.874,23.12 C98.281997,23.12 97.8080018,22.9880013 97.452,22.724 C97.0959982,22.4599987 96.918,22.0840024 96.918,21.596 C96.918,20.6679954 97.6779924,20.0680014 99.198,19.796 L101.034,19.472 L101.034,18.944 C101.034,18.4639976 100.892001,18.0880014 100.608,17.816 C100.323999,17.5439986 99.9220026,17.408 99.402,17.408 C98.4499952,17.408 97.8100016,17.8319958 97.482,18.68 L97.026,18.344 C97.2020009,17.8719976 97.493998,17.5100013 97.902,17.258 C98.310002,17.0059987 98.809997,16.88 99.402,16.88 C100.098003,16.88 100.643998,17.0499983 101.04,17.39 C101.436002,17.7300017 101.634,18.2239968 101.634,18.872 L101.634,21.968 C101.634,22.3920021 101.817998,22.604 102.186,22.604 Z M98.934,22.592 C99.2700017,22.592 99.5979984,22.5340006 99.918,22.418 C100.238002,22.3019994 100.503999,22.1300011 100.716,21.902 C100.928001,21.6739989 101.034,21.4000016 101.034,21.08 L101.034,19.964 L99.39,20.264 C98.7419968,20.3840006 98.2700015,20.5519989 97.974,20.768 C97.6779985,20.9840011 97.53,21.2599983 97.53,21.596 C97.53,21.9160016 97.6539988,22.1619991 97.902,22.334 C98.1500012,22.5060009 98.4939978,22.592 98.934,22.592 Z M106.398,16.88 C106.718002,16.88 106.969999,16.9479993 107.154,17.084 L106.998,17.648 C106.813999,17.5039993 106.558002,17.432 106.23,17.432 C105.925998,17.432 105.640001,17.5259991 105.372,17.714 C105.103999,17.9020009 104.888001,18.1659983 104.724,18.506 C104.559999,18.8460017 104.478,19.2239979 104.478,19.64 L104.478,23 L103.878,23 L103.878,17 L104.382,17 L104.454,18.224 C104.622001,17.7999979 104.871998,17.4700012 105.204,17.234 C105.536002,16.9979988 105.933998,16.88 106.398,16.88 Z M114.69,16.88 C115.378003,16.88 115.931998,17.0719981 116.352,17.456 C116.772002,17.8400019 116.982,18.3919964 116.982,19.112 L116.982,23 L116.382,23 L116.382,19.304 C116.382,18.6639968 116.226002,18.1880016 115.914,17.876 C115.601998,17.5639984 115.174003,17.408 114.63,17.408 C114.245998,17.408 113.890002,17.4959991 113.562,17.672 C113.233998,17.8480009 112.972001,18.1039983 112.776,18.44 C112.579999,18.7760017 112.482,19.1679978 112.482,19.616 L112.482,23 L111.882,23 L111.882,17 L112.422,17 L112.446,18.212 C112.638001,17.7799978 112.931998,17.4500011 113.328,17.222 C113.724002,16.9939989 114.177997,16.88 114.69,16.88 Z M123.882,22.604 C124.082001,22.604 124.237999,22.5760003 124.35,22.52 L124.314,23 C124.169999,23.0800004 123.974001,23.12 123.726,23.12 C123.445999,23.12 123.218001,23.0440008 123.042,22.892 C122.865999,22.7399992 122.766,22.4760019 122.742,22.1 C122.557999,22.4200016 122.262002,22.6699991 121.854,22.85 C121.445998,23.0300009 121.018002,23.12 120.57,23.12 C119.977997,23.12 119.504002,22.9880013 119.148,22.724 C118.791998,22.4599987 118.614,22.0840024 118.614,21.596 C118.614,20.6679954 119.373992,20.0680014 120.894,19.796 L122.73,19.472 L122.73,18.944 C122.73,18.4639976 122.588001,18.0880014 122.304,17.816 C122.019999,17.5439986 121.618003,17.408 121.098,17.408 C120.145995,17.408 119.506002,17.8319958 119.178,18.68 L118.722,18.344 C118.898001,17.8719976 119.189998,17.5100013 119.598,17.258 C120.006002,17.0059987 120.505997,16.88 121.098,16.88 C121.794003,16.88 122.339998,17.0499983 122.736,17.39 C123.132002,17.7300017 123.33,18.2239968 123.33,18.872 L123.33,21.968 C123.33,22.3920021 123.513998,22.604 123.882,22.604 Z M120.63,22.592 C120.966002,22.592 121.293998,22.5340006 121.614,22.418 C121.934002,22.3019994 122.199999,22.1300011 122.412,21.902 C122.624001,21.6739989 122.73,21.4000016 122.73,21.08 L122.73,19.964 L121.086,20.264 C120.437997,20.3840006 119.966001,20.5519989 119.67,20.768 C119.373999,20.9840011 119.226,21.2599983 119.226,21.596 C119.226,21.9160016 119.349999,22.1619991 119.598,22.334 C119.846001,22.5060009 120.189998,22.592 120.63,22.592 Z" id="path-3"/></defs><g id="🖥-Desktop---Home" stroke="none" stroke-width="1" fill="none" fill-rule="evenodd"><g id="🖥-1.0---Home----Desktop" transform="translate(-821.000000, -1293.000000)"><g id="_Content" transform="translate(-1.000000, 0.000000)"><g id="btn/store/apple" transform="translate(822.000000, 1293.000000)"><g id="Apple-Store"><mask id="mask-2" fill="white"><use xlink:href="#path-1"/></mask><use id="button" fill="#000000" xlink:href="#path-1"/><g id="Color-/-Black" mask="url(#mask-2)" fill="#000000"><rect id="Rectangle-1-Copy" x="0" y="0" width="213" height="64"/></g><mask id="mask-4" fill="white"><use xlink:href="#path-3"/></mask><use id="logo" fill="#FFFFFF" fill-rule="nonzero" xlink:href="#path-3"/><g id="Color-/-White" mask="url(#mask-4)" fill="#FFFFFF"><rect id="Rectangle-1-Copy" x="0" y="0" width="213" height="64"/></g></g></g></g></g></g></svg>