<svg viewBox="0 0 213 64" version="1.1" xmlns="http://www.w3.org/2000/svg" xmlns:xlink="http://www.w3.org/1999/xlink"><defs><rect id="path-1" x="0" y="0" width="213" height="64" rx="32"/><path d="M29,46.6741579 L29,17.3292599 C29,16.3052438 29.6014349,15.4200808 30.4742203,15 L47.6707324,31.996703 L30.4673042,49 C29.5982563,48.5786418 29,47.695533 29,46.6741579 Z M53.1263831,37.3887417 L34.323093,48.1186174 L49.1527944,33.4613587 L53.1263831,37.3887417 Z M58.9711493,29.9444589 C59.5965634,30.4176023 60,31.1631353 60,32.0017089 C60,32.8276815 59.6087887,33.5632027 58.9994423,34.0372091 L55.0054197,36.3164446 L50.6346817,31.996703 L55.0024507,27.6796888 L58.9711493,29.9444589 Z M34.3341132,15.8856118 L53.1234141,26.6074607 L49.1527944,30.5318748 L34.3341132,15.8856118 Z M149.219922,42.7207031 C149.219922,44.4007897 148.848051,45.7338818 148.104297,46.7200195 C147.360543,47.7061573 146.364459,48.1992187 145.116016,48.1992187 C143.64179,48.1992187 142.512895,47.6812552 141.729297,46.6453125 L141.729297,52.14375 L140.543945,52.14375 L140.543945,37.2222656 L141.649609,37.2222656 L141.709375,38.7462891 C142.486332,37.5974552 143.611907,37.0230469 145.086133,37.0230469 C146.374421,37.0230469 147.385446,37.5111279 148.119238,38.4873047 C148.853031,39.4634814 149.219922,40.8181554 149.219922,42.5513672 L149.219922,42.7207031 Z M148.024609,42.5115234 C148.024609,41.1369072 147.742386,40.0511759 147.17793,39.2542969 C146.613474,38.4574179 145.826568,38.0589844 144.817187,38.0589844 C144.086715,38.0589844 143.459182,38.2349592 142.93457,38.5869141 C142.409958,38.9388689 142.008205,39.450192 141.729297,40.1208984 L141.729297,45.290625 C142.014845,45.9082062 142.42324,46.3796859 142.954492,46.7050781 C143.485745,47.0304704 144.113278,47.1931641 144.837109,47.1931641 C145.839849,47.1931641 146.621775,46.7930704 147.18291,45.9928711 C147.744046,45.1926718 148.024609,44.0322342 148.024609,42.5115234 Z M153.194336,48 L151.999023,48 L151.999023,32.7 L153.194336,32.7 L153.194336,48 Z M163.234961,48 C163.115429,47.6613264 163.039063,47.1599643 163.005859,46.4958984 C162.587498,47.0404324 162.054593,47.4604477 161.407129,47.755957 C160.759665,48.0514663 160.074027,48.1992187 159.350195,48.1992187 C158.314253,48.1992187 157.475882,47.9103545 156.835059,47.3326172 C156.194235,46.7548799 155.873828,46.0244185 155.873828,45.1412109 C155.873828,44.0919869 156.310445,43.2619171 157.183691,42.6509766 C158.056938,42.040036 159.27382,41.7345703 160.834375,41.7345703 L162.995898,41.7345703 L162.995898,40.509375 C162.995898,39.7390586 162.758498,39.1331077 162.283691,38.6915039 C161.808884,38.2499001 161.116606,38.0291016 160.206836,38.0291016 C159.376754,38.0291016 158.689456,38.2415994 158.144922,38.6666016 C157.600388,39.0916037 157.328125,39.6029267 157.328125,40.2005859 L156.132812,40.190625 C156.132812,39.3339801 156.531246,38.5918977 157.328125,37.9643555 C158.125004,37.3368133 159.104486,37.0230469 160.266602,37.0230469 C161.468561,37.0230469 162.4165,37.3235322 163.110449,37.9245117 C163.804398,38.5254913 164.161328,39.3638618 164.18125,40.4396484 L164.18125,45.5396484 C164.18125,46.5822318 164.290819,47.3624974 164.509961,47.8804687 L164.509961,48 L163.234961,48 Z M159.489648,47.1433594 C160.286527,47.1433594 160.998727,46.9507832 161.62627,46.565625 C162.253812,46.1804668 162.71035,45.6658235 162.995898,45.0216797 L162.995898,42.6509766 L160.864258,42.6509766 C159.67558,42.6642579 158.745902,42.8817362 158.075195,43.303418 C157.404489,43.7250998 157.069141,44.3044885 157.069141,45.0416016 C157.069141,45.6459015 157.293259,46.1472636 157.741504,46.5457031 C158.189748,46.9441426 158.772457,47.1433594 159.489648,47.1433594 Z M170.775391,46.2867187 L173.923047,37.2222656 L175.208008,37.2222656 L170.606055,49.8328125 L170.366992,50.390625 C169.775974,51.6988347 168.862897,52.3529297 167.627734,52.3529297 C167.342186,52.3529297 167.03672,52.3064458 166.711328,52.2134766 L166.701367,51.2273437 L167.318945,51.2871094 C167.903323,51.2871094 168.376463,51.1426772 168.738379,50.8538086 C169.100295,50.56494 169.407421,50.0685582 169.659766,49.3646484 L170.187695,47.9103516 L166.123633,37.2222656 L167.428516,37.2222656 L170.775391,46.2867187 Z M134,41.1001404 L127.453372,43.8057199 C127.453372,43.8057199 127.876177,45.3021716 129.844468,45.3122015 C131.385713,45.3200552 132.255755,43.9461073 132.255755,43.9461073 L133.916722,45.0709636 C133.916722,45.0709636 132.576412,47.2386529 129.831385,47.2386529 C126.458125,47.2386529 124.972394,44.2890115 124.972394,42.373417 C124.972394,40.5277912 126.151682,37.4026239 129.622058,37.4026239 C133.092434,37.4026239 134,41.1001404 134,41.1001404 Z M131.509147,40.3336893 C131.509147,40.3336893 130.68549,39.0805161 129.422292,39.3116289 C126.750227,39.8005059 127.086484,42.1388314 127.086484,42.1388314 L131.509147,40.3336893 Z M121.855383,32.5141053 L124.045266,32.5141053 L124.045266,46.9733163 L121.855383,46.9733163 L121.855383,32.5141053 Z M118.3957,37.7134593 L120.420034,37.7309474 L120.420034,46.8542663 C120.420034,49.1852492 119.032236,51.6458254 115.765023,51.6458254 C112.49781,51.6458254 111.442621,48.7510336 111.442621,48.7510336 L113.301782,47.9691442 C113.301782,47.9691442 113.868814,49.7532024 115.861635,49.7532 C118.131022,49.7531973 118.395952,47.6885577 118.395952,46.9818256 L118.395952,45.9917342 C118.395952,45.9917342 117.610724,47.2207017 115.660359,47.2207044 C113.545766,47.2207073 111.032898,45.4089728 111.032898,42.3203246 C111.032898,39.2316765 113.399086,37.4650044 115.684827,37.4007412 C117.515684,37.349267 118.3957,38.6157969 118.3957,38.6157969 L118.3957,37.7134593 Z M115.833205,45.3667373 C117.309432,45.3667373 118.50615,44.0144722 118.50615,42.3463688 C118.50615,40.6782653 117.309432,39.3260002 115.833205,39.3260002 C114.356978,39.3260002 113.16026,40.6782653 113.16026,42.3463688 C113.16026,44.0144722 114.356978,45.3667373 115.833205,45.3667373 Z M105.205832,47.2303689 C102.484594,47.2303689 100.278595,45.0293418 100.278595,42.3142372 C100.278595,39.5991326 102.484594,37.3981054 105.205832,37.3981054 C107.92707,37.3981054 110.133069,39.5991326 110.133069,42.3142372 C110.133069,45.0293418 107.92707,47.2303689 105.205832,47.2303689 Z M105.173628,45.3024741 C106.703212,45.3024741 107.943186,43.9645949 107.943186,42.3142372 C107.943186,40.6638795 106.703212,39.3260002 105.173628,39.3260002 C103.644043,39.3260002 102.40407,40.6638795 102.40407,42.3142372 C102.40407,43.9645949 103.644043,45.3024741 105.173628,45.3024741 Z M85.4655307,35.587092 C84.537058,34.6399287 83.2183497,34.1206843 81.6967945,34.1206843 C78.6554112,34.1206843 76.1898829,36.5806558 76.1898829,39.6151845 C76.1898829,42.6497131 78.6554112,45.1096847 81.6967945,45.1096847 C84.3355135,45.1096847 86.3102827,43.7891492 86.7839719,40.9968424 L81.7289986,40.9968424 L81.7289986,38.9404213 L82.1046267,38.9404213 L88.7774866,38.9404213 C88.7777022,38.965849 88.7778102,38.9913285 88.7778102,39.0168593 C89.4925916,44.2535538 85.9180555,47.2689017 81.6323861,47.2303689 C77.4171397,47.2243384 74,43.8209347 74,39.6151845 C74,35.4094342 77.4171357,32 81.6323861,32 C83.835718,32 85.6879406,32.7680522 86.9541119,34.1018657 L85.4655307,35.587092 Z M94.5140505,47.2303689 C91.7928129,47.2303689 89.5868139,45.0293418 89.5868139,42.3142372 C89.5868139,39.5991326 91.7928129,37.3981054 94.5140505,37.3981054 C97.2352882,37.3981054 99.4412872,39.5991326 99.4412872,42.3142372 C99.4412872,45.0293418 97.2352882,47.2303689 94.5140505,47.2303689 Z M94.4818464,45.3024741 C96.0114309,45.3024741 97.2514042,43.9645949 97.2514042,42.3142372 C97.2514042,40.6638795 96.0114309,39.3260002 94.4818464,39.3260002 C92.9522618,39.3260002 91.7122885,40.6638795 91.7122885,42.3142372 C91.7122885,43.9645949 92.9522618,45.3024741 94.4818464,45.3024741 Z M76.196,14.08 C77.4600063,14.08 78.4339966,14.4139967 79.118,15.082 C79.8020034,15.7500033 80.144,16.7159937 80.144,17.98 C80.144,19.2760065 79.8020034,20.2699965 79.118,20.962 C78.4339966,21.6540035 77.4600063,22 76.196,22 L73.7,22 L73.7,14.08 L76.196,14.08 Z M76.244,21.448 C77.3000053,21.448 78.1099972,21.150003 78.674,20.554 C79.2380028,19.957997 79.52,19.1000056 79.52,17.98 C79.52,16.9079946 79.2380028,16.0820029 78.674,15.502 C78.1099972,14.9219971 77.3000053,14.632 76.244,14.632 L74.3,14.632 L74.3,21.448 L76.244,21.448 Z M82.232,14.836 C82.0799992,14.836 81.9580005,14.7900005 81.866,14.698 C81.7739995,14.6059995 81.728,14.4840008 81.728,14.332 C81.728,14.1799992 81.7739995,14.0580005 81.866,13.966 C81.9580005,13.8739995 82.0799992,13.828 82.232,13.828 C82.3840008,13.828 82.5059995,13.8739995 82.598,13.966 C82.6900005,14.0580005 82.736,14.1799992 82.736,14.332 C82.736,14.4840008 82.6900005,14.6059995 82.598,14.698 C82.5059995,14.7900005 82.3840008,14.836 82.232,14.836 Z M82.532,22 L81.932,22 L81.932,16 L82.532,16 L82.532,22 Z M86.636,22.12 C86.027997,22.12 85.5000022,22.0000012 85.052,21.76 C84.6039978,21.5199988 84.2960008,21.1720023 84.128,20.716 L84.62,20.392 C84.7400006,20.792002 84.9839982,21.091999 85.352,21.292 C85.7200018,21.492001 86.1719973,21.592 86.708,21.592 C87.2520027,21.592 87.6779985,21.488001 87.986,21.28 C88.2940015,21.071999 88.448,20.7960017 88.448,20.452 C88.448,20.1559985 88.3160013,19.9200009 88.052,19.744 C87.7879987,19.5679991 87.3240033,19.4200006 86.66,19.3 C85.8199958,19.1479992 85.2280017,18.9440013 84.884,18.688 C84.5399983,18.4319987 84.368,18.0680024 84.368,17.596 C84.368,17.2839984 84.463999,16.9960013 84.656,16.732 C84.848001,16.4679987 85.1199982,16.2600008 85.472,16.108 C85.8240018,15.9559992 86.2239978,15.88 86.672,15.88 C87.3040032,15.88 87.8099981,15.9999988 88.19,16.24 C88.5700019,16.4800012 88.8319993,16.8479975 88.976,17.344 L88.46,17.644 C88.2359989,16.8199959 87.6400048,16.408 86.672,16.408 C86.3519984,16.408 86.0620013,16.4599995 85.802,16.564 C85.5419987,16.6680005 85.3380007,16.8059991 85.19,16.978 C85.0419993,17.1500009 84.968,17.335999 84.968,17.536 C84.968,17.8640016 85.1039986,18.1199991 85.376,18.304 C85.6480014,18.4880009 86.1279966,18.6399994 86.816,18.76 C87.6320041,18.8960007 88.2079983,19.0919987 88.544,19.348 C88.8800017,19.6040013 89.048,19.9639977 89.048,20.428 C89.048,20.9400026 88.8300022,21.3499985 88.394,21.658 C87.9579978,21.9660015 87.3720037,22.12 86.636,22.12 Z M93.548,15.88 C94.3960042,15.88 95.0659975,16.1559972 95.558,16.708 C96.0500025,17.2600028 96.296,18.0239951 96.296,19 C96.296,19.9760049 96.0500025,20.7399972 95.558,21.292 C95.0659975,21.8440028 94.3960042,22.12 93.548,22.12 C93.0359974,22.12 92.5860019,21.9960012 92.198,21.748 C91.8099981,21.4999988 91.5240009,21.1600022 91.34,20.728 L91.34,24.52 L90.74,24.52 L90.74,16 L91.28,16 L91.316,17.356 C91.4840008,16.8919977 91.7619981,16.5300013 92.15,16.27 C92.5380019,16.0099987 93.0039973,15.88 93.548,15.88 Z M93.476,21.592 C94.1720035,21.592 94.715998,21.3620023 95.108,20.902 C95.500002,20.4419977 95.696,19.808004 95.696,19 C95.696,18.191996 95.500002,17.5580023 95.108,17.098 C94.715998,16.6379977 94.1720035,16.408 93.476,16.408 C92.8519969,16.408 92.3480019,16.6199979 91.964,17.044 C91.5799981,17.4680021 91.3720002,18.0479963 91.34,18.784 L91.34,19.216 C91.3720002,19.9520037 91.5799981,20.5319979 91.964,20.956 C92.3480019,21.3800021 92.8519969,21.592 93.476,21.592 Z M100.52,15.88 C101.408004,15.88 102.105997,16.1579972 102.614,16.714 C103.122003,17.2700028 103.376,18.0319952 103.376,19 C103.376,19.9680048 103.122003,20.7299972 102.614,21.286 C102.105997,21.8420028 101.408004,22.12 100.52,22.12 C99.6319956,22.12 98.9340025,21.8420028 98.426,21.286 C97.9179975,20.7299972 97.664,19.9680048 97.664,19 C97.664,18.0319952 97.9179975,17.2700028 98.426,16.714 C98.9340025,16.1579972 99.6319956,15.88 100.52,15.88 Z M100.52,16.396 C99.8159965,16.396 99.264002,16.6279977 98.864,17.092 C98.463998,17.5560023 98.264,18.191996 98.264,19 C98.264,19.808004 98.463998,20.4439977 98.864,20.908 C99.264002,21.3720023 99.8159965,21.604 100.52,21.604 C101.224004,21.604 101.775998,21.3720023 102.176,20.908 C102.576002,20.4439977 102.776,19.808004 102.776,19 C102.776,18.191996 102.576002,17.5560023 102.176,17.092 C101.775998,16.6279977 101.224004,16.396 100.52,16.396 Z M107.936,15.88 C108.624003,15.88 109.177998,16.0719981 109.598,16.456 C110.018002,16.8400019 110.228,17.3919964 110.228,18.112 L110.228,22 L109.628,22 L109.628,18.304 C109.628,17.6639968 109.472002,17.1880016 109.16,16.876 C108.847998,16.5639984 108.420003,16.408 107.876,16.408 C107.491998,16.408 107.136002,16.4959991 106.808,16.672 C106.479998,16.8480009 106.218001,17.1039983 106.022,17.44 C105.825999,17.7760017 105.728,18.1679978 105.728,18.616 L105.728,22 L105.128,22 L105.128,16 L105.668,16 L105.692,17.212 C105.884001,16.7799978 106.177998,16.4500011 106.574,16.222 C106.970002,15.9939989 107.423997,15.88 107.936,15.88 Z M112.904,22 L112.304,22 L112.304,16 L112.904,16 L112.904,22 Z M113.876,13.108 L112.748,15.004 L112.256,15.004 L113.216,13.108 L113.876,13.108 Z M119.804,16 L117.296,22 L116.696,22 L114.188,16 L114.86,16 L117.008,21.388 L119.168,16 L119.804,16 Z M125.984,18.856 C125.984,18.9920007 125.976,19.1239994 125.96,19.252 L121.196,19.252 C121.236,19.9880037 121.453998,20.5619979 121.85,20.974 C122.246002,21.3860021 122.775997,21.592 123.44,21.592 C123.912002,21.592 124.317998,21.496001 124.658,21.304 C124.998002,21.111999 125.243999,20.8400018 125.396,20.488 L125.9,20.752 C125.675999,21.1920022 125.356002,21.5299988 124.94,21.766 C124.523998,22.0020012 124.024003,22.12 123.44,22.12 C122.551996,22.12 121.858003,21.8440028 121.358,21.292 C120.857998,20.7399972 120.608,19.9760049 120.608,19 C120.608,18.0239951 120.849998,17.2600028 121.334,16.708 C121.818002,16.1559972 122.495996,15.88 123.368,15.88 C124.184004,15.88 124.823998,16.1519973 125.288,16.696 C125.752002,17.2400027 125.984,17.9599955 125.984,18.856 Z M123.368,16.408 C122.719997,16.408 122.208002,16.609998 121.832,17.014 C121.455998,17.418002 121.244,17.9839964 121.196,18.712 L125.42,18.712 C125.38,17.9919964 125.182002,17.428002 124.826,17.02 C124.469998,16.611998 123.984003,16.408 123.368,16.408 Z M128.252,20.548 C128.252,20.9160018 128.309999,21.1759992 128.426,21.328 C128.542001,21.4800008 128.735999,21.556 129.008,21.556 C129.168001,21.556 129.303999,21.5440001 129.416,21.52 C129.528001,21.4959999 129.655999,21.4520003 129.8,21.388 L129.716,21.964 C129.491999,22.0680005 129.228002,22.12 128.924,22.12 C128.491998,22.12 128.172001,21.9980012 127.964,21.754 C127.755999,21.5099988 127.652,21.1280026 127.652,20.608 L127.652,13.24 L128.252,13.24 L128.252,20.548 Z M137.168,15.88 C137.856003,15.88 138.409998,16.0719981 138.83,16.456 C139.250002,16.8400019 139.46,17.3919964 139.46,18.112 L139.46,22 L138.86,22 L138.86,18.304 C138.86,17.6639968 138.704002,17.1880016 138.392,16.876 C138.079998,16.5639984 137.652003,16.408 137.108,16.408 C136.723998,16.408 136.368002,16.4959991 136.04,16.672 C135.711998,16.8480009 135.450001,17.1039983 135.254,17.44 C135.057999,17.7760017 134.96,18.1679978 134.96,18.616 L134.96,22 L134.36,22 L134.36,16 L134.9,16 L134.924,17.212 C135.116001,16.7799978 135.409998,16.4500011 135.806,16.222 C136.202002,15.9939989 136.655997,15.88 137.168,15.88 Z M144.008,15.88 C144.896004,15.88 145.593997,16.1579972 146.102,16.714 C146.610003,17.2700028 146.864,18.0319952 146.864,19 C146.864,19.9680048 146.610003,20.7299972 146.102,21.286 C145.593997,21.8420028 144.896004,22.12 144.008,22.12 C143.119996,22.12 142.422003,21.8420028 141.914,21.286 C141.405997,20.7299972 141.152,19.9680048 141.152,19 C141.152,18.0319952 141.405997,17.2700028 141.914,16.714 C142.422003,16.1579972 143.119996,15.88 144.008,15.88 Z M144.008,16.396 C143.303996,16.396 142.752002,16.6279977 142.352,17.092 C141.951998,17.5560023 141.752,18.191996 141.752,19 C141.752,19.808004 141.951998,20.4439977 142.352,20.908 C142.752002,21.3720023 143.303996,21.604 144.008,21.604 C144.712004,21.604 145.263998,21.3720023 145.664,20.908 C146.064002,20.4439977 146.264,19.808004 146.264,19 C146.264,18.191996 146.064002,17.5560023 145.664,17.092 C145.263998,16.6279977 144.712004,16.396 144.008,16.396 Z" id="path-3"/></defs><g id="🖥-Desktop---Home" stroke="none" stroke-width="1" fill="none" fill-rule="evenodd"><g id="🖥-1.0---Home----Desktop" transform="translate(-1056.000000, -1293.000000)"><g id="_Content" transform="translate(-1.000000, 0.000000)"><g id="btn/store/google" transform="translate(1057.000000, 1293.000000)"><g id="Google-Play"><mask id="mask-2" fill="white"><use xlink:href="#path-1"/></mask><use id="button" fill="#000000" xlink:href="#path-1"/><g id="Color-/-Black" mask="url(#mask-2)" fill="#000000"><rect id="Rectangle-1-Copy" x="0" y="0" width="213" height="64"/></g><mask id="mask-4" fill="white"><use xlink:href="#path-3"/></mask><use id="logo" fill="#FFFFFF" fill-rule="nonzero" xlink:href="#path-3"/><g id="Color-/-White" mask="url(#mask-4)" fill="#FFFFFF"><rect id="Rectangle-1-Copy" x="0" y="0" width="213" height="64"/></g></g></g></g></g></g></svg>