<svg viewBox="0 0 134 18" xmlns="http://www.w3.org/2000/svg"><g fill="#FFF" fill-rule="evenodd"><path d="M38.35 7.888h2.085v4.255c-1.167 1.293-2.834 1.94-5.002 1.94-1.826 0-3.355-.605-4.586-1.816C29.616 11.057 29 9.526 29 7.674c0-1.852.627-3.395 1.882-4.629 1.255-1.234 2.772-1.851 4.551-1.851 1.78 0 3.258.522 4.436 1.566l-1.113 1.603c-.483-.416-.97-.704-1.458-.864-.49-.16-1.058-.24-1.706-.24-1.249 0-2.297.406-3.146 1.22-.848.812-1.272 1.88-1.272 3.204 0 1.323.412 2.385 1.237 3.187.825.8 1.823 1.201 2.996 1.201 1.172 0 2.153-.255 2.942-.765V7.888zm8.872 4.415c.86 0 1.57-.288 2.13-.864.559-.575.839-1.32.839-2.234 0-.914-.28-1.659-.84-2.234-.56-.576-1.27-.864-2.13-.864-.86 0-1.57.288-2.129.864-.56.575-.84 1.32-.84 2.234 0 .914.28 1.659.84 2.234.56.576 1.27.864 2.13.864zm0 1.78c-1.414 0-2.592-.472-3.535-1.415-.943-.944-1.414-2.098-1.414-3.463 0-1.365.471-2.52 1.414-3.463.943-.943 2.12-1.415 3.535-1.415 1.414 0 2.592.472 3.534 1.415.943.944 1.414 2.098 1.414 3.463 0 1.365-.471 2.52-1.414 3.463-.942.943-2.12 1.415-3.534 1.415zm11.523-1.78c.86 0 1.57-.288 2.13-.864.56-.575.84-1.32.84-2.234 0-.914-.28-1.659-.84-2.234-.56-.576-1.27-.864-2.13-.864-.86 0-1.57.288-2.13.864-.56.575-.84 1.32-.84 2.234 0 .914.28 1.659.84 2.234.56.576 1.27.864 2.13.864zm0 1.78c-1.414 0-2.592-.472-3.535-1.415-.942-.944-1.414-2.098-1.414-3.463 0-1.365.472-2.52 1.414-3.463.943-.943 2.121-1.415 3.535-1.415 1.414 0 2.592.472 3.535 1.415.942.944 1.414 2.098 1.414 3.463 0 1.365-.472 2.52-1.414 3.463-.943.943-2.121 1.415-3.535 1.415zM74.634 4.47v8.261c0 1.674-.45 2.929-1.352 3.765-.902.837-2.06 1.256-3.473 1.256-1.414 0-2.693-.445-3.835-1.336l.936-1.513c.92.7 1.847 1.05 2.784 1.05.937 0 1.679-.243 2.227-.73.548-.486.822-1.263.822-2.332v-1.21a3.387 3.387 0 0 1-1.264 1.335 3.49 3.49 0 0 1-1.847.498c-1.249 0-2.274-.439-3.075-1.317-.801-.878-1.202-1.97-1.202-3.276 0-1.305.4-2.397 1.202-3.276.801-.878 1.823-1.317 3.066-1.317 1.243 0 2.254.516 3.031 1.549V4.469h1.98zm-6.62 6.383c.478.564 1.12.845 1.927.845.807 0 1.461-.272 1.962-.818.5-.546.751-1.226.751-2.039 0-.813-.253-1.501-.76-2.065-.506-.564-1.16-.846-1.961-.846-.802 0-1.44.291-1.918.873a3.117 3.117 0 0 0-.716 2.038c0 .777.239 1.448.716 2.012zm11.462 3.089h-1.98V.73h1.98v13.21zm11.612-3.864h-7.37c.047.689.36 1.244.937 1.665a3.272 3.272 0 0 0 1.98.632c1.177 0 2.073-.374 2.686-1.122l1.13 1.247c-1.013 1.056-2.332 1.584-3.958 1.584-1.32 0-2.442-.442-3.367-1.326-.925-.884-1.387-2.071-1.387-3.56 0-1.49.47-2.674 1.413-3.553.943-.878 2.054-1.317 3.332-1.317s2.365.389 3.26 1.166c.896.777 1.344 1.849 1.344 3.214v1.37zm-7.37-1.566h5.39c0-.796-.247-1.407-.742-1.834-.495-.427-1.104-.64-1.829-.64-.725 0-1.376.222-1.953.667-.577.445-.866 1.047-.866 1.807zm23.011-5.929c.86.724 1.29 1.84 1.29 3.347 0 1.508-.438 2.611-1.316 3.312-.878.7-2.224 1.05-4.039 1.05h-2.191v3.65h-2.086V1.496h4.242c1.873 0 3.24.362 4.1 1.086zm-1.475 5.136c.418-.445.627-1.097.627-1.958 0-.86-.265-1.469-.795-1.825-.53-.356-1.361-.534-2.492-.534h-2.121v4.985h2.421c1.155 0 1.941-.222 2.36-.668zm6.919 6.223h-1.98V.73h1.98v13.21zm10.48 0h-1.802v-1.264c-.778.937-1.82 1.406-3.129 1.406-.978 0-1.788-.279-2.43-.837-.642-.557-.963-1.302-.963-2.234 0-.932.342-1.629 1.025-2.092.684-.463 1.608-.694 2.775-.694h2.563V7.87c0-1.258-.696-1.887-2.086-1.887-.872 0-1.779.32-2.722.961l-.883-1.246c1.143-.914 2.439-1.371 3.888-1.371 1.107 0 2.012.282 2.713.846.7.563 1.051 1.45 1.051 2.661v6.107zm-1.979-3.525v-.801h-2.227c-1.426 0-2.138.45-2.138 1.353 0 .462.176.816.53 1.059.353.243.845.365 1.476.365.63 0 1.18-.178 1.652-.534.471-.356.707-.837.707-1.442zm5.92 7.299c-.86 0-1.637-.315-2.332-.944l.901-1.62c.412.392.84.588 1.281.588.442 0 .802-.16 1.079-.48.276-.321.415-.671.415-1.051 0-.166-1.267-3.413-3.8-9.739h2.12l2.811 6.98 2.81-6.98H134l-4.56 11.252c-.27.617-.66 1.104-1.166 1.46a2.855 2.855 0 0 1-1.68.534zM.501 18C.198 17.919 0 17.618 0 17.154V1.826c0-.43.167-.72.433-.826L8 9.542.501 18zM2 18l9-5.379L8.808 10 2 18zm9-11.683L2 1l6.727 8L11 6.317zm.645.683l3.811 1.845c.722.349.729.912 0 1.264L11.55 12 9 9.517 11.645 7z"/></g></svg>